HIERARCHY
ROOT Hips
{
  OFFSET 373.837 88.1643 177.628
  CHANNELS 6 Xposition Yposition Zposition Zrotation Xrotation Yrotation
  JOINT RightUpLeg
  {
    OFFSET -9.27602 -1.55371 -0.0617006
    CHANNELS 3 Zrotation Xrotation Yrotation
    JOINT RightLeg
    {
      OFFSET 0.0569767 -41.8713 0.0644562
      CHANNELS 3 Zrotation Xrotation Yrotation
      JOINT RightFoot
      {
        OFFSET -0.463049 -43.0064 -0.0336586
        CHANNELS 3 Zrotation Xrotation Yrotation
        End Site
        {
          OFFSET 0 -7.69 17.5
        }
      }
    }
  }
  JOINT LeftUpLeg
  {
    OFFSET 9.29312 -1.63815 0.0236341
    CHANNELS 3 Zrotation Xrotation Yrotation
    JOINT LeftLeg
    {
      OFFSET 0.0670365 -41.8776 -0.0578197
      CHANNELS 3 Zrotation Xrotation Yrotation
      JOINT LeftFoot
      {
        OFFSET 0.591956 -40.8352 0.210268
        CHANNELS 3 Zrotation Xrotation Yrotation
        End Site
        {
          OFFSET 0 -7.69 17.5
        }
      }
    }
  }
  JOINT Spine
  {
    OFFSET 0.0229142 14.2949 0.0394214
    CHANNELS 3 Zrotation Xrotation Yrotation
    JOINT Spine1
    {
      OFFSET 0.0328969 9.71943 0.0194292
      CHANNELS 3 Zrotation Xrotation Yrotation
      JOINT Spine2
      {
        OFFSET 0.0292955 10.1244 -0.00440821
        CHANNELS 3 Zrotation Xrotation Yrotation
        JOINT Spine3
        {
          OFFSET 0.024556 9.71184 0.0101567
          CHANNELS 3 Zrotation Xrotation Yrotation
          JOINT Neck
          {
            OFFSET 0.152325 10.3757 0.0664015
            CHANNELS 3 Zrotation Xrotation Yrotation
            JOINT Head
            {
              OFFSET 0.134553 9.4858 0.0499874
              CHANNELS 3 Zrotation Xrotation Yrotation
              End Site
              {
                OFFSET 0 15.95 0
              }
            }
          }
          JOINT RightShoulder
          {
            OFFSET -3.19519 6.89024 -0.0330231
            CHANNELS 3 Zrotation Xrotation Yrotation
            JOINT RightArm
            {
              OFFSET -12.6524 0.0927817 0.0603028
              CHANNELS 3 Zrotation Xrotation Yrotation
              JOINT RightForeArm
              {
                OFFSET -26.4983 -0.141459 0.202928
                CHANNELS 3 Zrotation Xrotation Yrotation
                JOINT RightHand
                {
                  OFFSET -25.9883 -0.0240172 0.0141731
                  CHANNELS 3 Zrotation Xrotation Yrotation
                  JOINT RightHandThumb1
                  {
                    OFFSET -2.48905 0.190105 3.12053
                    CHANNELS 3 Zrotation Xrotation Yrotation
                    JOINT RightHandThumb2
                    {
                      OFFSET -3.68274 0 0
                      CHANNELS 3 Zrotation Xrotation Yrotation
                      JOINT RightHandThumb3
                      {
                        OFFSET -2.55832 0 0
                        CHANNELS 3 Zrotation Xrotation Yrotation
                        End Site
                        {
                          OFFSET -2.194 0 0
                        }
                      }
                    }
                  }
                  JOINT RightInHandIndex
                  {
                    OFFSET -3.22368 0.508421 1.97842
                    CHANNELS 3 Zrotation Xrotation Yrotation
                    JOINT RightHandIndex1
                    {
                      OFFSET -5.21684 -0.091368 0.999158
                      CHANNELS 3 Zrotation Xrotation Yrotation
                      JOINT RightHandIndex2
                      {
                        OFFSET -3.61937 0 0
                        CHANNELS 3 Zrotation Xrotation Yrotation
                        JOINT RightHandIndex3
                        {
                          OFFSET -2.0521 0 0
                          CHANNELS 3 Zrotation Xrotation Yrotation
                          End Site
                          {
                            OFFSET -1.805 0 0
                          }
                        }
                      }
                    }
                  }
                  JOINT RightInHandMiddle
                  {
                    OFFSET -3.38211 0.517263 0.756737
                    CHANNELS 3 Zrotation Xrotation Yrotation
                    JOINT RightHandMiddle1
                    {
                      OFFSET -5.17411 -0.084 0.313895
                      CHANNELS 3 Zrotation Xrotation Yrotation
                      JOINT RightHandMiddle2
                      {
                        OFFSET -3.94947 0 0
                        CHANNELS 3 Zrotation Xrotation Yrotation
                        JOINT RightHandMiddle3
                        {
                          OFFSET -2.47579 0 0
                          CHANNELS 3 Zrotation Xrotation Yrotation
                          End Site
                          {
                            OFFSET -1.975 0 0
                          }
                        }
                      }
                    }
                  }
                  JOINT RightInHandRing
                  {
                    OFFSET -3.36516 0.537895 -0.128947
                    CHANNELS 3 Zrotation Xrotation Yrotation
                    JOINT RightHandRing1
                    {
                      OFFSET -4.63474 -0.022105 -0.478947
                      CHANNELS 3 Zrotation Xrotation Yrotation
                      JOINT RightHandRing2
                      {
                        OFFSET -3.44238 0 0
                        CHANNELS 3 Zrotation Xrotation Yrotation
                        JOINT RightHandRing3
                        {
                          OFFSET -2.3881 0 0
                          CHANNELS 3 Zrotation Xrotation Yrotation
                          End Site
                          {
                            OFFSET -1.857 0 0
                          }
                        }
                      }
                    }
                  }
                  JOINT RightInHandPinky
                  {
                    OFFSET -3.16105 0.469368 -1.20179
                    CHANNELS 3 Zrotation Xrotation Yrotation
                    JOINT RightHandPinky1
                    {
                      OFFSET -4.14105 -0.022105 -1.09053
                      CHANNELS 3 Zrotation Xrotation Yrotation
                      JOINT RightHandPinky2
                      {
                        OFFSET -2.75653 0 0
                        CHANNELS 3 Zrotation Xrotation Yrotation
                        JOINT RightHandPinky3
                        {
                          OFFSET -1.74189 0 0
                          CHANNELS 3 Zrotation Xrotation Yrotation
                          End Site
                          {
                            OFFSET -1.645 0 0
                          }
                        }
                      }
                    }
                  }
                }
              }
            }
          }
          JOINT LeftShoulder
          {
            OFFSET 3.28609 6.87948 -0.0751467
            CHANNELS 3 Zrotation Xrotation Yrotation
            JOINT LeftArm
            {
              OFFSET 12.831 -0.0663252 -0.1321
              CHANNELS 3 Zrotation Xrotation Yrotation
              JOINT LeftForeArm
              {
                OFFSET 26.5106 -0.082189 -0.0903645
                CHANNELS 3 Zrotation Xrotation Yrotation
                JOINT LeftHand
                {
                  OFFSET 25.9965 -0.0307163 -0.0535747
                  CHANNELS 3 Zrotation Xrotation Yrotation
                  JOINT LeftHandThumb1
                  {
                    OFFSET 2.48905 0.190105 3.12053
                    CHANNELS 3 Zrotation Xrotation Yrotation
                    JOINT LeftHandThumb2
                    {
                      OFFSET 3.68274 0 0
                      CHANNELS 3 Zrotation Xrotation Yrotation
                      JOINT LeftHandThumb3
                      {
                        OFFSET 2.55832 0 0
                        CHANNELS 3 Zrotation Xrotation Yrotation
                        End Site
                        {
                          OFFSET 2.194 0 0
                        }
                      }
                    }
                  }
                  JOINT LeftInHandIndex
                  {
                    OFFSET 3.22368 0.508421 1.97842
                    CHANNELS 3 Zrotation Xrotation Yrotation
                    JOINT LeftHandIndex1
                    {
                      OFFSET 5.21684 -0.091368 0.999158
                      CHANNELS 3 Zrotation Xrotation Yrotation
                      JOINT LeftHandIndex2
                      {
                        OFFSET 3.61937 0 0
                        CHANNELS 3 Zrotation Xrotation Yrotation
                        JOINT LeftHandIndex3
                        {
                          OFFSET 2.0521 0 0
                          CHANNELS 3 Zrotation Xrotation Yrotation
                          End Site
                          {
                            OFFSET 1.805 0 0
                          }
                        }
                      }
                    }
                  }
                  JOINT LeftInHandMiddle
                  {
                    OFFSET 3.38211 0.517263 0.756737
                    CHANNELS 3 Zrotation Xrotation Yrotation
                    JOINT LeftHandMiddle1
                    {
                      OFFSET 5.17411 -0.084 0.313895
                      CHANNELS 3 Zrotation Xrotation Yrotation
                      JOINT LeftHandMiddle2
                      {
                        OFFSET 3.94947 0 0
                        CHANNELS 3 Zrotation Xrotation Yrotation
                        JOINT LeftHandMiddle3
                        {
                          OFFSET 2.47579 0 0
                          CHANNELS 3 Zrotation Xrotation Yrotation
                          End Site
                          {
                            OFFSET 1.975 0 0
                          }
                        }
                      }
                    }
                  }
                  JOINT LeftInHandRing
                  {
                    OFFSET 3.36516 0.537895 -0.128947
                    CHANNELS 3 Zrotation Xrotation Yrotation
                    JOINT LeftHandRing1
                    {
                      OFFSET 4.63474 -0.022105 -0.478947
                      CHANNELS 3 Zrotation Xrotation Yrotation
                      JOINT LeftHandRing2
                      {
                        OFFSET 3.44238 0 0
                        CHANNELS 3 Zrotation Xrotation Yrotation
                        JOINT LeftHandRing3
                        {
                          OFFSET 2.3881 0 0
                          CHANNELS 3 Zrotation Xrotation Yrotation
                          End Site
                          {
                            OFFSET 1.857 0 0
                          }
                        }
                      }
                    }
                  }
                  JOINT LeftInHandPinky
                  {
                    OFFSET 3.16105 0.469368 -1.20179
                    CHANNELS 3 Zrotation Xrotation Yrotation
                    JOINT LeftHandPinky1
                    {
                      OFFSET 4.14105 -0.022105 -1.09053
                      CHANNELS 3 Zrotation Xrotation Yrotation
                      JOINT LeftHandPinky2
                      {
                        OFFSET 2.75653 0 0
                        CHANNELS 3 Zrotation Xrotation Yrotation
                        JOINT LeftHandPinky3
                        {
                          OFFSET 1.74189 0 0
                          CHANNELS 3 Zrotation Xrotation Yrotation
                          End Site
                          {
                            OFFSET 1.645 0 0
                          }
                        }
                      }
                    }
                  }
                }
              }
            }
          }
        }
      }
    }
  }
}
MOTION
Frames: 3
Frame Time: 0.00833333
8.977876097210016724e+02 -1.544303933103378768e+00 -6.603024116682973954e+00 1.086021994372620725e+01 4.311026488743578966e-01 -6.488772459061394215e+01 1.947687385051874287e+01 -2.283384550600867158e+01 1.498933369338135968e+01 -8.682404754556083404e-01 4.010631920042420973e+00 8.133006042639312483e+00 4.416937161713109461e+00 -5.606016575064124652e+00 1.726330516406326154e+01 2.362328656816360706e+01 -1.255072082114676135e+00 1.800495360500997322e+01 -1.534965199026911975e+01 1.133793569903230036e+01 1.639916657552001311e+01 9.767613285412794610e+00 -5.229801334011533243e+00 3.635849630741712701e+01 1.347176293849925433e+00 -2.037257671536909065e+00 -1.975181977063408567e+01 3.112325727178262280e-01 -1.093435644179873434e-01 -4.983867133779849468e+00 5.009071384584016240e-01 1.109061982921533129e-02 -7.943478228088460824e+00 -5.199204083160232637e-01 2.815847991648845472e-02 2.378070139113603432e+00 -1.269793907829088742e+00 -1.480265975808245038e+00 2.718139957325159983e+01 -8.883069465716207702e+00 2.214458859912229016e+00 2.942773200708430892e+01 4.558206519181745797e+00 4.980107190226256364e+00 -1.729983434804526965e+01 8.064757490121003514e+00 -2.681714836898062515e+01 -3.564704355529102742e+01 1.713180927020517430e+01 4.562614962772052252e+00 2.607143936899662151e+01 -7.606140737497408821e+00 -1.398618525240009092e+01 7.258656590588836721e-01 0.000000000000000000e+00 0.000000000000000000e+00 0.000000000000000000e+00 1.730336301478346148e-16 -1.084321676038106962e-15 0.000000000000000000e+00 -1.452864639654329492e-15 -2.933256057297781601e-16 0.000000000000000000e+00 5.472805627965434519e-16 -5.393158447059562529e-18 -9.305142684340663629e-16 0.000000000000000000e+00 0.000000000000000000e+00 0.000000000000000000e+00 0.000000000000000000e+00 -1.891541747259997794e-16 -3.702680270822920368e-15 0.000000000000000000e+00 3.665577922058896469e-15 6.770974954588730080e-15 5.472805627965434519e-16 -5.393158447059562529e-18 -9.305142684340663629e-16 0.000000000000000000e+00 1.772574342322554747e-15 3.118663656255075539e-15 0.000000000000000000e+00 2.984494944870017420e-15 -4.025393244389325346e-15 0.000000000000000000e+00 1.243174684831843243e-15 6.644364799006401763e-15 5.472805627965434519e-16 -5.393158447059562529e-18 -9.305142684340663629e-16 0.000000000000000000e+00 0.000000000000000000e+00 0.000000000000000000e+00 0.000000000000000000e+00 5.982341164309475424e-16 -3.345985504767386400e-15 0.000000000000000000e+00 1.371513913075451706e-15 -1.407114632591825436e-15 5.472805627965434519e-16 -5.393158447059562529e-18 -9.305142684340663629e-16 0.000000000000000000e+00 0.000000000000000000e+00 0.000000000000000000e+00 0.000000000000000000e+00 9.060413102860557428e-17 -5.648145127901493691e-15 0.000000000000000000e+00 2.630084800749411802e-15 -3.667324147654706119e-15 3.126850924988170632e+00 -4.936628838923500240e+00 -1.250088033774416374e+01 1.504444454339184745e+01 1.784111689788365851e+01 -2.128551861192778460e+01 7.009981413258927319e+00 2.840811347248738628e+01 2.903765370710164007e+01 -5.836827113989677684e+00 -6.987762441505438460e-01 1.809629481929721173e+00 0.000000000000000000e+00 0.000000000000000000e+00 0.000000000000000000e+00 6.777328926255794992e-16 -1.523909345909955261e-15 0.000000000000000000e+00 -1.467500831851865107e-15 -1.963143355628833542e-16 0.000000000000000000e+00 -2.112581566911134088e-16 1.228764524778725548e-15 2.049155948239506899e-15 0.000000000000000000e+00 0.000000000000000000e+00 0.000000000000000000e+00 0.000000000000000000e+00 2.558781192024530182e-16 -7.408754592809141867e-16 0.000000000000000000e+00 -1.835620262751228522e-15 3.462705840397980105e-15 -2.112581566911134088e-16 1.228764524778725548e-15 2.049155948239506899e-15 0.000000000000000000e+00 -2.335483773591968431e-15 1.497960484107373416e-15 0.000000000000000000e+00 8.100188989508574930e-16 2.604628940488797225e-15 0.000000000000000000e+00 -2.163654935650891759e-15 4.019890336274169581e-15 -2.112581566911134088e-16 1.228764524778725548e-15 2.049155948239506899e-15 0.000000000000000000e+00 0.000000000000000000e+00 0.000000000000000000e+00 0.000000000000000000e+00 2.968072209911551066e-16 3.719172996694104332e-15 0.000000000000000000e+00 -1.246056424575177330e-15 4.243755048568422817e-15 -2.112581566911134088e-16 1.228764524778725548e-15 2.049155948239506899e-15 0.000000000000000000e+00 0.000000000000000000e+00 0.000000000000000000e+00 0.000000000000000000e+00 -1.409219334601879623e-15 1.249648497148575066e-15 0.000000000000000000e+00 7.777527201450052263e-16 3.177403552133998981e-15
8.978091373515022724e+02 -1.551140638542648276e+00 -6.605509099939411044e+00 1.094515087791003083e+01 5.282410635768091112e-01 -6.500916504829204712e+01 1.924634014148754702e+01 -2.306350501060810743e+01 1.480898276515890544e+01 -8.320470661708210258e-01 4.098636986249642788e+00 8.159076280622558741e+00 4.478898212687527192e+00 -5.847988637372111498e+00 1.714779376115473042e+01 2.365013363026706728e+01 -1.502685955404881923e+00 1.795069741581859191e+01 -1.526628292690248401e+01 1.145326781813876948e+01 1.635632339854306849e+01 9.787532022549624955e+00 -5.202957098245313716e+00 3.648215149749447050e+01 1.425662266944018652e+00 -1.908344976682268657e+00 -1.987476213922820278e+01 3.330130099131481947e-01 -7.322210201501874738e-02 -5.012255879197335950e+00 5.358629175333287087e-01 7.101917484756115062e-02 -7.985108302659266855e+00 -5.190767356449429437e-01 3.607492249648819316e-02 2.375688121292409249e+00 -1.287581420321168846e+00 -1.412646950349040864e+00 2.716653885280820546e+01 -8.861834480562460925e+00 2.200559561709916956e+00 2.937701974422434148e+01 4.603019730986009250e+00 4.906101595007028138e+00 -1.735747007270803977e+01 8.486594769161847296e+00 -2.659511067383441230e+01 -3.574556618871152125e+01 1.702974814111541946e+01 4.729429401463800531e+00 2.539265081630217935e+01 -7.584209203792361187e+00 -1.415749463053036195e+01 6.933341872780607318e-01 0.000000000000000000e+00 0.000000000000000000e+00 0.000000000000000000e+00 1.920478948251789759e-16 -1.087327518941716780e-15 0.000000000000000000e+00 -1.491430868502321243e-15 -2.880794158325303182e-16 0.000000000000000000e+00 5.378105367041551695e-16 -3.179996170749756579e-17 -9.566573821646017114e-16 0.000000000000000000e+00 0.000000000000000000e+00 0.000000000000000000e+00 0.000000000000000000e+00 -1.846728697321038001e-16 -3.773451924795279019e-15 0.000000000000000000e+00 3.678876752803737213e-15 6.548960698956345399e-15 5.378105367041551695e-16 -3.179996170749756579e-17 -9.566573821646017114e-16 0.000000000000000000e+00 1.821804798512572850e-15 3.176286362392698796e-15 0.000000000000000000e+00 3.012973855335251512e-15 -4.045306117007541515e-15 0.000000000000000000e+00 1.208022935792057881e-15 6.421773014408205690e-15 5.378105367041551695e-16 -3.179996170749756579e-17 -9.566573821646017114e-16 0.000000000000000000e+00 0.000000000000000000e+00 0.000000000000000000e+00 0.000000000000000000e+00 5.940166930987309718e-16 -3.376501402641330037e-15 0.000000000000000000e+00 1.378795177397638120e-15 -1.482544802070986822e-15 5.378105367041551695e-16 -3.179996170749756579e-17 -9.566573821646017114e-16 0.000000000000000000e+00 0.000000000000000000e+00 0.000000000000000000e+00 0.000000000000000000e+00 1.234220061238936576e-16 -5.709254042178404181e-15 0.000000000000000000e+00 2.631721121324888627e-15 -3.723147101876825022e-15 3.237980475812845427e+00 -4.926177526953036789e+00 -1.243773520830723101e+01 1.491888055515071798e+01 1.812196499750205092e+01 -2.119385854837663885e+01 6.241736677179318349e+00 2.822497421381375915e+01 2.906241041573407458e+01 -5.897976172766561831e+00 -7.474665148289112437e-01 1.851284887026049653e+00 0.000000000000000000e+00 0.000000000000000000e+00 0.000000000000000000e+00 6.665316878919063911e-16 -1.514581340698825849e-15 0.000000000000000000e+00 -1.494713942918524301e-15 -1.599420474988358561e-16 0.000000000000000000e+00 -2.639449299124283589e-16 1.256305046195119145e-15 2.067245294870618800e-15 0.000000000000000000e+00 0.000000000000000000e+00 0.000000000000000000e+00 0.000000000000000000e+00 2.943377919647302355e-16 -7.330875415122809622e-16 0.000000000000000000e+00 -1.877643588272548467e-15 3.517332022926623012e-15 -2.639449299124283589e-16 1.256305046195119145e-15 2.067245294870618800e-15 0.000000000000000000e+00 -2.382548741703371045e-15 1.452657924204835111e-15 0.000000000000000000e+00 8.311436879272834120e-16 2.653655799116469258e-15 0.000000000000000000e+00 -2.208900290604755765e-15 4.082267714907412565e-15 -2.639449299124283589e-16 1.256305046195119145e-15 2.067245294870618800e-15 0.000000000000000000e+00 0.000000000000000000e+00 0.000000000000000000e+00 0.000000000000000000e+00 2.912439545877606705e-16 3.780822035803197860e-15 0.000000000000000000e+00 -1.262925673170761904e-15 4.335969628472983996e-15 -2.639449299124283589e-16 1.256305046195119145e-15 2.067245294870618800e-15 0.000000000000000000e+00 0.000000000000000000e+00 0.000000000000000000e+00 0.000000000000000000e+00 -1.407018937393539403e-15 1.254185099786687345e-15 0.000000000000000000e+00 8.040363294507171533e-16 3.251880279254665529e-15
8.978323013251463180e+02 -1.557276481577190452e+00 -6.604729655344414141e+00 1.102585591752153960e+01 6.257059191457958747e-01 -6.510225093110867078e+01 1.900222539021343948e+01 -2.328553227343699561e+01 1.461942318227719539e+01 -7.947764565932553538e-01 4.185707549153077522e+00 8.181711585378089069e+00 4.539605927480820924e+00 -6.091639176828545388e+00 1.702239765340519284e+01 2.366588778141466420e+01 -1.752855395761990565e+00 1.788785730705084376e+01 -1.517468853948833640e+01 1.156517238763930067e+01 1.630560218441296882e+01 9.802878356791470793e+00 -5.173849542718826910e+00 3.658995820688478773e+01 1.504664252407590608e+00 -1.775548652981036257e+00 -1.998975103859763536e+01 3.549876491866406636e-01 -3.628336143846613848e-02 -5.038590235936698747e+00 5.711196352868482817e-01 1.321990286835266204e-01 -8.023383712658578304e+00 -5.180025103803017616e-01 4.408410745492885585e-02 2.372121170209235075e+00 -1.305177157972490898e+00 -1.343192432317924734e+00 2.713851192379509314e+01 -8.836334860664990742e+00 2.184953734725574304e+00 2.931107526680892050e+01 4.646400993411317515e+00 4.828810111335289257e+00 -1.740683507374560435e+01 8.912821323708300270e+00 -2.635742172305708664e+01 -3.582702396783925991e+01 1.692136638120723902e+01 4.898787050670584620e+00 2.468770765510443255e+01 -7.557013460059263110e+00 -1.432405965626659494e+01 6.573834208549831359e-01 0.000000000000000000e+00 0.000000000000000000e+00 0.000000000000000000e+00 2.111981476850832344e-16 -1.089979017825643944e-15 0.000000000000000000e+00 -1.530278106936067039e-15 -2.824318926752278886e-16 0.000000000000000000e+00 5.283946578489516776e-16 -5.867394813778803081e-17 -9.830343155919167841e-16 0.000000000000000000e+00 0.000000000000000000e+00 0.000000000000000000e+00 0.000000000000000000e+00 -1.798969647576147745e-16 -3.843817653612465294e-15 0.000000000000000000e+00 3.691542079061330907e-15 6.323796987306069668e-15 5.283946578489516776e-16 -5.867394813778803081e-17 -9.830343155919167841e-16 0.000000000000000000e+00 1.870911427289915695e-15 3.233604893608425532e-15 0.000000000000000000e+00 3.040699919511268229e-15 -4.064020767946240843e-15 0.000000000000000000e+00 1.172501927188638247e-15 6.195572442644284008e-15 5.283946578489516776e-16 -5.867394813778803081e-17 -9.830343155919167841e-16 0.000000000000000000e+00 0.000000000000000000e+00 0.000000000000000000e+00 0.000000000000000000e+00 5.895304295341889342e-16 -3.405813048064507149e-15 0.000000000000000000e+00 1.385348619778988559e-15 -1.558323276898887447e-15 5.283946578489516776e-16 -5.867394813778803081e-17 -9.830343155919167841e-16 0.000000000000000000e+00 0.000000000000000000e+00 0.000000000000000000e+00 0.000000000000000000e+00 1.572512271218777844e-16 -5.768777463384896731e-15 0.000000000000000000e+00 2.632025030112435953e-15 -3.778026892610767654e-15 3.349829302663765773e+00 -4.913607322940130473e+00 -1.236808287293921182e+01 1.478365474992717665e+01 1.839960039282002668e+01 -2.108994854841868971e+01 5.452171863030102372e+00 2.802255644464377937e+01 2.907071143033861205e+01 -5.956228062312810323e+00 -7.972603029525391349e-01 1.893737415524657131e+00 0.000000000000000000e+00 0.000000000000000000e+00 0.000000000000000000e+00 6.551999524107369231e-16 -1.504153658620807785e-15 0.000000000000000000e+00 -1.521832026248123251e-15 -1.226635038994945310e-16 0.000000000000000000e+00 -3.178104982119989729e-16 1.283796664368376314e-15 2.084476682855486862e-15 0.000000000000000000e+00 0.000000000000000000e+00 0.000000000000000000e+00 0.000000000000000000e+00 3.336299853993946188e-16 -7.248231994293143828e-16 0.000000000000000000e+00 -1.919584891200462327e-15 3.571629881686430827e-15 -3.178104982119989729e-16 1.283796664368376314e-15 2.084476682855486862e-15 0.000000000000000000e+00 -2.429110926979174283e-15 1.404803162370473074e-15 0.000000000000000000e+00 8.524513761974029221e-16 2.702267800866965264e-15 0.000000000000000000e+00 -2.253868283200479683e-15 4.144057270004142537e-15 -3.178104982119989729e-16 1.283796664368376314e-15 2.084476682855486862e-15 0.000000000000000000e+00 0.000000000000000000e+00 0.000000000000000000e+00 0.000000000000000000e+00 2.852194593474136592e-16 3.841867423787366091e-15 0.000000000000000000e+00 -1.279530755167667228e-15 4.428567376617555120e-15 -3.178104982119989729e-16 1.283796664368376314e-15 2.084476682855486862e-15 0.000000000000000000e+00 0.000000000000000000e+00 0.000000000000000000e+00 0.000000000000000000e+00 -1.403718677686531586e-15 1.258607909081342028e-15 0.000000000000000000e+00 8.306120563463709223e-16 3.326748611701778988e-15
